<svg xmlns="http://www.w3.org/2000/svg" viewBox="0 0 64 64" fill="none">
  <rect width="64" height="64" rx="18" fill="#111111"/>
  <path d="M39.4 17.8c-1.5 1.8-4 3.1-6.3 2.9-.3-2.4.9-4.9 2.3-6.5 1.6-1.8 4.2-3.1 6.3-3.2.3 2.5-.7 4.9-2.3 6.8Z" fill="white"/>
  <path d="M45.9 39.5c-1 2.3-1.5 3.3-2.8 5.4-1.8 2.8-4.4 6.3-7.5 6.3-2.8 0-3.5-1.8-7.3-1.8-3.8 0-4.7 1.8-7.4 1.8-3.1 0-5.5-3.1-7.3-5.9-5-7.6-5.5-16.5-2.4-21.2 2.2-3.4 5.7-5.4 9-5.4 3.4 0 5.6 1.8 8.4 1.8 2.7 0 4.4-1.8 8.3-1.8 2.9 0 6 1.6 8.2 4.4-7.2 4.1-6 14.3.8 16.4Z" fill="white"/>
</svg>
